<svg id="Layer_1" data-name="Layer 1" xmlns="http://www.w3.org/2000/svg" viewBox="0 0 414.02 200"><defs><style>.cls-1{fill:#222;}.cls-1,.cls-2{fill-rule:evenodd;}.cls-2{fill:#7d3269;}</style></defs><g id="SvgjsG1013"><path class="cls-1" d="M86.8,109a5.56,5.56,0,0,0-1.75-4.13,5.79,5.79,0,0,0-4.13-1.75,6.23,6.23,0,0,0-4.14,1.75,5.76,5.76,0,0,0-.68,7.58c0,.34.34.34.68.68a5.77,5.77,0,0,0,4.14,1.75,6.21,6.21,0,0,0,4.13-1.75A10.39,10.39,0,0,0,86.8,109Zm64.29-5.88a5.74,5.74,0,0,1,4.13,9.72h0a5.77,5.77,0,1,1-4.47-9.67c-.05,0-.05,0,.34,0ZM172.86,137a35.32,35.32,0,0,0,10.69-14.19A34.38,34.38,0,0,0,186,105.14a36.29,36.29,0,0,0-6.56-16.58,51.87,51.87,0,0,1,6.9-13.8H163.19a88.82,88.82,0,0,0-22.45-10,72.77,72.77,0,0,0-24.2-3.11,101.51,101.51,0,0,0-24.89,3.11,98.51,98.51,0,0,0-23.13,10H46.41A48.12,48.12,0,0,1,53.31,89a31,31,0,0,0-6.9,16.23,35.88,35.88,0,0,0,2.77,18,37,37,0,0,0,11.08,14.19,36.43,36.43,0,0,0,16.57,6.56,38.21,38.21,0,0,0,17.64-2.09,33.44,33.44,0,0,0,14.19-10.69l7.24,11.08,7.58-11.42A37.74,37.74,0,0,0,138,141.87,31.81,31.81,0,0,0,156,144a34.54,34.54,0,0,0,16.87-7Zm-63.61-27.66h0a27.45,27.45,0,0,1-3.79,13.81,32.29,32.29,0,0,1-10,10.35,27.56,27.56,0,0,1-13.81,3.79,30.13,30.13,0,0,1-14.19-3.79,26.66,26.66,0,0,1-10-10.35,27.08,27.08,0,0,1,0-28,32.29,32.29,0,0,1,10-10.35A27.91,27.91,0,0,1,81.64,81a27.45,27.45,0,0,1,13.81,3.79,28.24,28.24,0,0,1,10,10,30.15,30.15,0,0,1,3.79,14.53Zm6.9-2.77A35.13,35.13,0,0,0,81.94,74.08a88.85,88.85,0,0,1,33.87-6.9,81.92,81.92,0,0,1,33.87,6.9,33,33,0,0,0-16.23,4.47,37.2,37.2,0,0,0-17.3,28Zm61.18-6.9a27.85,27.85,0,0,1,1.36,14.19A26.45,26.45,0,0,1,172.81,127a28.34,28.34,0,0,1-11.76,8.31,28.85,28.85,0,0,1-14.53,1.36,26.45,26.45,0,0,1-13.12-5.88A25.58,25.58,0,0,1,125.09,119h0a27.82,27.82,0,0,1-1.36-14.18A30.47,30.47,0,0,1,130,91.67a28.34,28.34,0,0,1,11.76-8.31A29,29,0,0,1,156.24,82a26.45,26.45,0,0,1,13.12,5.88,26.73,26.73,0,0,1,8,11.76ZM98.22,109a17.47,17.47,0,1,0-17.64,17.3A16.44,16.44,0,0,0,93,121.07a16.34,16.34,0,0,0,5.2-12.1Zm-5.88,0a11.17,11.17,0,0,1-11.08,11.08h0a11.42,11.42,0,0,1,0-22.84,11,11,0,0,1,8,3.11A15.73,15.73,0,0,1,92.34,109Zm76,0a19.18,19.18,0,0,0-5.2-12.44,16.21,16.21,0,0,0-12.1-5.2,17.3,17.3,0,1,0,0,34.6,16.66,16.66,0,0,0,17.3-17Zm-5.88,0h0a11,11,0,0,1-3.11,8,9.75,9.75,0,0,1-8,3.11,11.25,11.25,0,1,1-.34-22.5h.34a11,11,0,0,1,8,3.11,12.36,12.36,0,0,1,3.11,8.31Z"/></g><g id="SvgjsG1013-2" data-name="SvgjsG1013"><path class="cls-2" d="M268.29,109a5.53,5.53,0,0,0-1.75-4.13,5.79,5.79,0,0,0-4.13-1.75,6.21,6.21,0,0,0-4.13,1.75,5.74,5.74,0,0,0-.68,7.58c0,.34.34.34.68.68a5.75,5.75,0,0,0,4.13,1.75,6.21,6.21,0,0,0,4.13-1.75A10.25,10.25,0,0,0,268.29,109Zm64.29-5.88a5.74,5.74,0,0,1,4.13,9.72h0a5.77,5.77,0,1,1-4.47-9.67c-.05,0-.05,0,.34,0ZM354.35,137A35.32,35.32,0,0,0,365,122.78a34.38,34.38,0,0,0,2.43-17.64,36.29,36.29,0,0,0-6.56-16.58,51.87,51.87,0,0,1,6.9-13.8H344.68a88.82,88.82,0,0,0-22.45-10A72.73,72.73,0,0,0,298,61.64a101.43,101.43,0,0,0-24.88,3.11,98.33,98.33,0,0,0-23.13,10H227.91A48.12,48.12,0,0,1,234.81,89a31,31,0,0,0-6.9,16.23,35.88,35.88,0,0,0,2.77,18,37,37,0,0,0,11.08,14.19,36.43,36.43,0,0,0,16.57,6.56A38.21,38.21,0,0,0,276,141.82a33.44,33.44,0,0,0,14.19-10.69l7.24,11.08L305,130.79a37.74,37.74,0,0,0,14.53,11.08,31.81,31.81,0,0,0,18,2.09,34.55,34.55,0,0,0,16.86-7Zm-63.61-27.66h0A27.45,27.45,0,0,1,287,123.12a32.29,32.29,0,0,1-10,10.35,27.53,27.53,0,0,1-13.8,3.79A30.13,30.13,0,0,1,249,133.47a26.66,26.66,0,0,1-10-10.35,27.08,27.08,0,0,1,0-28,32.29,32.29,0,0,1,10-10.35A27.89,27.89,0,0,1,263.14,81a27.39,27.39,0,0,1,13.8,3.79,28.24,28.24,0,0,1,10,10,30.15,30.15,0,0,1,3.79,14.53Zm6.9-2.77a35.13,35.13,0,0,0-34.21-32.46,88.85,88.85,0,0,1,33.87-6.9,81.92,81.92,0,0,1,33.87,6.9,33,33,0,0,0-16.23,4.47,37.2,37.2,0,0,0-17.3,28Zm61.18-6.9a28,28,0,0,1,1.37,14.19A26.54,26.54,0,0,1,354.31,127a28.4,28.4,0,0,1-11.76,8.31A28.86,28.86,0,0,1,328,136.62a26.52,26.52,0,0,1-13.13-5.88,25.49,25.49,0,0,1-8.3-11.76h0a27.93,27.93,0,0,1-1.37-14.18,30.47,30.47,0,0,1,6.22-13.13,28.4,28.4,0,0,1,11.76-8.31A29,29,0,0,1,337.73,82a26.52,26.52,0,0,1,13.13,5.88,26.8,26.8,0,0,1,8,11.76ZM279.71,109a17.47,17.47,0,1,0-17.64,17.3A17.76,17.76,0,0,0,279.71,109Zm-5.88,0a11.17,11.17,0,0,1-11.08,11.08h0a11.42,11.42,0,1,1,0-22.84,11,11,0,0,1,8,3.11,15.73,15.73,0,0,1,3.11,8.65Zm76,0a19.18,19.18,0,0,0-5.2-12.44,16.21,16.21,0,0,0-12.1-5.2,17.3,17.3,0,1,0,0,34.6,16.66,16.66,0,0,0,17.3-17ZM344,109h0a11,11,0,0,1-3.11,8,9.75,9.75,0,0,1-8,3.11,11.25,11.25,0,0,1-.34-22.5h.34a11,11,0,0,1,8,3.11A12.36,12.36,0,0,1,344,109Z"/></g></svg>